<svg width="50" height="30" viewBox="0 0 50 30" fill="none" xmlns="http://www.w3.org/2000/svg">
<path d="M0 20.8537H1.48569V24.8049L4.52311 28.1707H15.1541L0.330154 8.81707V3.76829L3.40059 0.365855H16.3756L18.6867 2.92683V0H20.1724V9.14634H18.6867V5.19512L15.6493 1.82927H6.0088L20.8327 21.1829V26.2317L17.7623 29.6341H3.79677L1.48569 27.0732V30H0V20.8537Z" fill="white"/>
<path d="M37.025 29.6341V28.1707H34.3837V15.7317H39.7652V26.5976L42.5055 29.6341H50V28.1707H47.3588V18.0366L44.6185 15L47.3588 11.9634V3.76829L44.2883 0.365855H24.1489V1.82927H26.7902V28.1707H24.1489V29.6341H37.025ZM34.3837 1.82927H39.7652V14.2683H34.3837V1.82927Z" fill="white"/>
</svg>
