<svg width="1200" height="150" viewBox="0 0 1200 150" fill="none" xmlns="http://www.w3.org/2000/svg">
<path d="M213.246 107.2V104.2H210.246V107.2H213.246ZM218.646 107.2H221.646V104.2H218.646V107.2ZM218.646 120.16H215.646V121.403L216.525 122.281L218.646 120.16ZM229.686 131.2L227.565 133.321L228.443 134.2H229.686V131.2ZM268.326 131.2V134.2H274.807L270.613 129.259L268.326 131.2ZM214.446 67.72H211.446V68.8215L212.159 69.6613L214.446 67.72ZM214.446 51.16L212.325 49.0387L211.446 49.9174V51.16H214.446ZM225.606 40V37H224.363L223.485 37.8787L225.606 40ZM272.766 40L274.887 37.8787L274.009 37H272.766V40ZM281.166 48.4L279.045 50.5213L284.166 55.6426V48.4H281.166ZM281.166 38.8V35.8H278.166V38.8H281.166ZM286.566 38.8H289.566V35.8H286.566V38.8ZM286.566 68.8V71.8H289.566V68.8H286.566ZM281.166 68.8H278.166V71.8H281.166V68.8ZM281.166 55.84H284.166V54.5974L283.287 53.7187L281.166 55.84ZM270.126 44.8L272.247 42.6787L271.369 41.8H270.126V44.8ZM235.086 44.8V41.8H228.605L232.799 46.7413L235.086 44.8ZM288.966 108.28H291.966V107.178L291.253 106.339L288.966 108.28ZM288.966 124.84L291.087 126.961L291.966 126.083V124.84H288.966ZM277.806 136V139H279.049L279.927 138.121L277.806 136ZM227.046 136L224.925 138.121L225.803 139H227.046V136ZM218.646 127.6L220.767 125.479L215.646 120.357V127.6H218.646ZM218.646 137.2V140.2H221.646V137.2H218.646ZM213.246 137.2H210.246V140.2H213.246V137.2ZM213.246 110.2H218.646V104.2H213.246V110.2ZM215.646 107.2V120.16H221.646V107.2H215.646ZM216.525 122.281L227.565 133.321L231.807 129.079L220.767 118.039L216.525 122.281ZM229.686 134.2H268.326V128.2H229.686V134.2ZM270.613 129.259L216.733 65.7787L212.159 69.6613L266.039 133.141L270.613 129.259ZM217.446 67.72V51.16H211.446V67.72H217.446ZM216.567 53.2813L227.727 42.1213L223.485 37.8787L212.325 49.0387L216.567 53.2813ZM225.606 43H272.766V37H225.606V43ZM270.645 42.1213L279.045 50.5213L283.287 46.2787L274.887 37.8787L270.645 42.1213ZM284.166 48.4V38.8H278.166V48.4H284.166ZM281.166 41.8H286.566V35.8H281.166V41.8ZM283.566 38.8V68.8H289.566V38.8H283.566ZM286.566 65.8H281.166V71.8H286.566V65.8ZM284.166 68.8V55.84H278.166V68.8H284.166ZM283.287 53.7187L272.247 42.6787L268.005 46.9213L279.045 57.9613L283.287 53.7187ZM270.126 41.8H235.086V47.8H270.126V41.8ZM232.799 46.7413L286.679 110.221L291.253 106.339L237.373 42.8587L232.799 46.7413ZM285.966 108.28V124.84H291.966V108.28H285.966ZM286.845 122.719L275.685 133.879L279.927 138.121L291.087 126.961L286.845 122.719ZM277.806 133H227.046V139H277.806V133ZM229.167 133.879L220.767 125.479L216.525 129.721L224.925 138.121L229.167 133.879ZM215.646 127.6V137.2H221.646V127.6H215.646ZM218.646 134.2H213.246V140.2H218.646V134.2ZM216.246 137.2V107.2H210.246V137.2H216.246ZM350.82 124.84L352.941 126.961L355.062 124.84L352.941 122.719L350.82 124.84ZM339.66 136V139H340.902L341.781 138.121L339.66 136ZM315.78 136L313.658 138.121L314.537 139H315.78V136ZM304.62 124.84H301.62V126.083L302.498 126.961L304.62 124.84ZM304.62 48.4H307.62V45.4H304.62V48.4ZM296.22 48.4H293.22V51.4H296.22V48.4ZM296.22 43.6V40.6H293.22V43.6H296.22ZM320.46 43.6L322.581 41.4787L321.702 40.6H320.46V43.6ZM330.42 53.56H333.42V52.3174L332.541 51.4387L330.42 53.56ZM330.42 71.2H327.42V74.2H330.42V71.2ZM347.22 71.2H350.22V68.2H347.22V71.2ZM347.22 76V79H350.22V76H347.22ZM330.42 76V73H327.42V76H330.42ZM330.42 131.2H327.42V134.2H330.42V131.2ZM337.02 131.2V134.2H338.262L339.141 133.321L337.02 131.2ZM347.1 121.12L349.221 118.999L347.1 116.877L344.978 118.999L347.1 121.12ZM348.698 122.719L337.538 133.879L341.781 138.121L352.941 126.961L348.698 122.719ZM339.66 133H315.78V139H339.66V133ZM317.901 133.879L306.741 122.719L302.498 126.961L313.658 138.121L317.901 133.879ZM307.62 124.84V48.4H301.62V124.84H307.62ZM304.62 45.4H296.22V51.4H304.62V45.4ZM299.22 48.4V43.6H293.22V48.4H299.22ZM296.22 46.6H320.46V40.6H296.22V46.6ZM318.338 45.7213L328.298 55.6813L332.541 51.4387L322.581 41.4787L318.338 45.7213ZM327.42 53.56V71.2H333.42V53.56H327.42ZM330.42 74.2H347.22V68.2H330.42V74.2ZM344.22 71.2V76H350.22V71.2H344.22ZM347.22 73H330.42V79H347.22V73ZM327.42 76V131.2H333.42V76H327.42ZM330.42 134.2H337.02V128.2H330.42V134.2ZM339.141 133.321L349.221 123.241L344.978 118.999L334.898 129.079L339.141 133.321ZM344.978 123.241L348.698 126.961L352.941 122.719L349.221 118.999L344.978 123.241ZM422.862 72.76L424.983 74.8813L427.104 72.76L424.983 70.6387L422.862 72.76ZM419.142 76.48L417.02 78.6013L419.142 80.7226L421.263 78.6013L419.142 76.48ZM411.462 68.8L413.583 66.6787L412.704 65.8H411.462V68.8ZM401.262 68.8V65.8H400.019L399.14 66.6787L401.262 68.8ZM392.862 77.2L390.74 75.0787L389.862 75.9574V77.2H392.862ZM392.862 131.2H389.862V134.2H392.862V131.2ZM402.462 131.2H405.462V128.2H402.462V131.2ZM402.462 136V139H405.462V136H402.462ZM376.422 136L374.3 138.121L375.179 139H376.422V136ZM365.262 124.84H362.262V126.083L363.14 126.961L365.262 124.84ZM365.262 68.8H368.262V65.8H365.262V68.8ZM355.662 68.8H352.662V71.8H355.662V68.8ZM355.662 64V61H352.662V64H355.662ZM381.702 64L383.808 61.8637L382.932 61H381.702V64ZM390.222 72.4L388.115 74.5363L390.237 76.6276L392.343 74.5213L390.222 72.4ZM398.622 64V61H397.379L396.5 61.8787L398.622 64ZM414.102 64L416.223 61.8787L415.344 61H414.102V64ZM420.74 70.6387L417.02 74.3587L421.263 78.6013L424.983 74.8813L420.74 70.6387ZM421.263 74.3587L413.583 66.6787L409.34 70.9213L417.02 78.6013L421.263 74.3587ZM411.462 65.8H401.262V71.8H411.462V65.8ZM399.14 66.6787L390.74 75.0787L394.983 79.3213L403.383 70.9213L399.14 66.6787ZM389.862 77.2V131.2H395.862V77.2H389.862ZM392.862 134.2H402.462V128.2H392.862V134.2ZM399.462 131.2V136H405.462V131.2H399.462ZM402.462 133H376.422V139H402.462V133ZM378.543 133.879L367.383 122.719L363.14 126.961L374.3 138.121L378.543 133.879ZM368.262 124.84V68.8H362.262V124.84H368.262ZM365.262 65.8H355.662V71.8H365.262V65.8ZM358.662 68.8V64H352.662V68.8H358.662ZM355.662 67H381.702V61H355.662V67ZM379.595 66.1363L388.115 74.5363L392.328 70.2637L383.808 61.8637L379.595 66.1363ZM392.343 74.5213L400.743 66.1213L396.5 61.8787L388.1 70.2787L392.343 74.5213ZM398.622 67H414.102V61H398.622V67ZM411.98 66.1213L420.74 74.8813L424.983 70.6387L416.223 61.8787L411.98 66.1213ZM440.031 136L437.91 138.121L438.788 139H440.031V136ZM486.711 136V139H487.954L488.832 138.121L486.711 136ZM497.871 124.84L499.992 126.961L502.114 124.84L499.992 122.719L497.871 124.84ZM494.151 121.12L496.272 118.999L494.151 116.877L492.03 118.999L494.151 121.12ZM484.071 131.2V134.2H485.314L486.192 133.321L484.071 131.2ZM456.471 131.2H453.471V134.2H456.471V131.2ZM456.471 106V103H453.471V106H456.471ZM486.111 106V109H487.354L488.232 108.121L486.111 106ZM497.271 94.84L499.392 96.9613L500.271 96.0826V94.84H497.271ZM497.271 75.16H500.271V73.9174L499.392 73.0387L497.271 75.16ZM486.111 64L488.232 61.8787L487.354 61H486.111V64ZM440.031 64V61H438.788L437.91 61.8787L440.031 64ZM428.871 75.16L426.75 73.0387L425.871 73.9174V75.16H428.871ZM428.871 124.84H425.871V126.083L426.75 126.961L428.871 124.84ZM456.471 68.8V65.8H453.471V68.8H456.471ZM469.671 68.8H472.671V65.8H469.671V68.8ZM469.671 101.2V104.2H472.671V101.2H469.671ZM456.471 101.2H453.471V104.2H456.471V101.2ZM440.031 139H486.711V133H440.031V139ZM488.832 138.121L499.992 126.961L495.75 122.719L484.59 133.879L488.832 138.121ZM499.992 122.719L496.272 118.999L492.03 123.241L495.75 126.961L499.992 122.719ZM492.03 118.999L481.95 129.079L486.192 133.321L496.272 123.241L492.03 118.999ZM484.071 128.2H456.471V134.2H484.071V128.2ZM459.471 131.2V106H453.471V131.2H459.471ZM456.471 109H486.111V103H456.471V109ZM488.232 108.121L499.392 96.9613L495.15 92.7187L483.99 103.879L488.232 108.121ZM500.271 94.84V75.16H494.271V94.84H500.271ZM499.392 73.0387L488.232 61.8787L483.99 66.1213L495.15 77.2813L499.392 73.0387ZM486.111 61H440.031V67H486.111V61ZM437.91 61.8787L426.75 73.0387L430.992 77.2813L442.152 66.1213L437.91 61.8787ZM425.871 75.16V124.84H431.871V75.16H425.871ZM426.75 126.961L437.91 138.121L442.152 133.879L430.992 122.719L426.75 126.961ZM456.471 71.8H469.671V65.8H456.471V71.8ZM466.671 68.8V101.2H472.671V68.8H466.671ZM469.671 98.2H456.471V104.2H469.671V98.2ZM459.471 101.2V68.8H453.471V101.2H459.471ZM519.25 136L517.129 138.121L518.007 139H519.25V136ZM565.93 136V139H567.172L568.051 138.121L565.93 136ZM577.09 124.84L579.211 126.961L581.332 124.84L579.211 122.719L577.09 124.84ZM573.37 121.12L575.491 118.999L573.37 116.877L571.249 118.999L573.37 121.12ZM563.29 131.2V134.2H564.532L565.411 133.321L563.29 131.2ZM535.69 131.2H532.69V134.2H535.69V131.2ZM535.69 106V103H532.69V106H535.69ZM565.33 106V109H566.572L567.451 108.121L565.33 106ZM576.49 94.84L578.611 96.9613L579.49 96.0826V94.84H576.49ZM576.49 75.16H579.49V73.9174L578.611 73.0387L576.49 75.16ZM565.33 64L567.451 61.8787L566.572 61H565.33V64ZM519.25 64V61H518.007L517.129 61.8787L519.25 64ZM508.09 75.16L505.969 73.0387L505.09 73.9174V75.16H508.09ZM508.09 124.84H505.09V126.083L505.969 126.961L508.09 124.84ZM535.69 68.8V65.8H532.69V68.8H535.69ZM548.89 68.8H551.89V65.8H548.89V68.8ZM548.89 101.2V104.2H551.89V101.2H548.89ZM535.69 101.2H532.69V104.2H535.69V101.2ZM519.25 139H565.93V133H519.25V139ZM568.051 138.121L579.211 126.961L574.969 122.719L563.809 133.879L568.051 138.121ZM579.211 122.719L575.491 118.999L571.249 123.241L574.969 126.961L579.211 122.719ZM571.249 118.999L561.169 129.079L565.411 133.321L575.491 123.241L571.249 118.999ZM563.29 128.2H535.69V134.2H563.29V128.2ZM538.69 131.2V106H532.69V131.2H538.69ZM535.69 109H565.33V103H535.69V109ZM567.451 108.121L578.611 96.9613L574.369 92.7187L563.209 103.879L567.451 108.121ZM579.49 94.84V75.16H573.49V94.84H579.49ZM578.611 73.0387L567.451 61.8787L563.209 66.1213L574.369 77.2813L578.611 73.0387ZM565.33 61H519.25V67H565.33V61ZM517.129 61.8787L505.969 73.0387L510.211 77.2813L521.371 66.1213L517.129 61.8787ZM505.09 75.16V124.84H511.09V75.16H505.09ZM505.969 126.961L517.129 138.121L521.371 133.879L510.211 122.719L505.969 126.961ZM535.69 71.8H548.89V65.8H535.69V71.8ZM545.89 68.8V101.2H551.89V68.8H545.89ZM548.89 98.2H535.69V104.2H548.89V98.2ZM538.69 101.2V68.8H532.69V101.2H538.69ZM637.109 124.84L639.23 126.961L641.351 124.84L639.23 122.719L637.109 124.84ZM625.949 136V139H627.191L628.07 138.121L625.949 136ZM602.069 136L599.947 138.121L600.826 139H602.069V136ZM590.909 124.84H587.909V126.083L588.787 126.961L590.909 124.84ZM590.909 48.4H593.909V45.4H590.909V48.4ZM582.509 48.4H579.509V51.4H582.509V48.4ZM582.509 43.6V40.6H579.509V43.6H582.509ZM606.749 43.6L608.87 41.4787L607.991 40.6H606.749V43.6ZM616.709 53.56H619.709V52.3174L618.83 51.4387L616.709 53.56ZM616.709 71.2H613.709V74.2H616.709V71.2ZM633.509 71.2H636.509V68.2H633.509V71.2ZM633.509 76V79H636.509V76H633.509ZM616.709 76V73H613.709V76H616.709ZM616.709 131.2H613.709V134.2H616.709V131.2ZM623.309 131.2V134.2H624.551L625.43 133.321L623.309 131.2ZM633.389 121.12L635.51 118.999L633.389 116.877L631.267 118.999L633.389 121.12ZM634.987 122.719L623.827 133.879L628.07 138.121L639.23 126.961L634.987 122.719ZM625.949 133H602.069V139H625.949V133ZM604.19 133.879L593.03 122.719L588.787 126.961L599.947 138.121L604.19 133.879ZM593.909 124.84V48.4H587.909V124.84H593.909ZM590.909 45.4H582.509V51.4H590.909V45.4ZM585.509 48.4V43.6H579.509V48.4H585.509ZM582.509 46.6H606.749V40.6H582.509V46.6ZM604.627 45.7213L614.587 55.6813L618.83 51.4387L608.87 41.4787L604.627 45.7213ZM613.709 53.56V71.2H619.709V53.56H613.709ZM616.709 74.2H633.509V68.2H616.709V74.2ZM630.509 71.2V76H636.509V71.2H630.509ZM633.509 73H616.709V79H633.509V73ZM613.709 76V131.2H619.709V76H613.709ZM616.709 134.2H623.309V128.2H616.709V134.2ZM625.43 133.321L635.51 123.241L631.267 118.999L621.187 129.079L625.43 133.321ZM631.267 123.241L634.987 126.961L639.23 122.719L635.51 118.999L631.267 123.241ZM723.523 136V139H726.523V136H723.523ZM723.523 131.2H726.523V128.2H723.523V131.2ZM713.923 131.2H710.923V134.2H713.923V131.2ZM713.923 90.4V87.4H710.923V90.4H713.923ZM733.483 90.4H736.483V87.4H733.483V90.4ZM733.483 126.04H730.483V127.283L731.361 128.161L733.483 126.04ZM743.443 136L741.321 138.121L742.2 139H743.443V136ZM770.683 136V139H773.683V136H770.683ZM770.683 131.2H773.683V128.2H770.683V131.2ZM761.083 131.2H758.083V134.2H761.083V131.2ZM761.083 97.96H764.083V96.7174L763.204 95.8387L761.083 97.96ZM751.123 88L749.001 85.8787L746.88 88L749.001 90.1213L751.123 88ZM761.083 78.04L763.204 80.1613L764.083 79.2826V78.04H761.083ZM761.083 51.16H764.083V49.9174L763.204 49.0387L761.083 51.16ZM749.923 40L752.044 37.8787L751.165 37H749.923V40ZM676.723 40V37H673.723V40H676.723ZM676.723 44.8H673.723V47.8H676.723V44.8ZM686.323 44.8H689.323V41.8H686.323V44.8ZM686.323 131.2V134.2H689.323V131.2H686.323ZM676.723 131.2V128.2H673.723V131.2H676.723ZM676.723 136H673.723V139H676.723V136ZM713.923 44.8V41.8H710.923V44.8H713.923ZM733.483 44.8H736.483V41.8H733.483V44.8ZM733.483 85.6V88.6H736.483V85.6H733.483ZM713.923 85.6H710.923V88.6H713.923V85.6ZM726.523 136V131.2H720.523V136H726.523ZM723.523 128.2H713.923V134.2H723.523V128.2ZM716.923 131.2V90.4H710.923V131.2H716.923ZM713.923 93.4H733.483V87.4H713.923V93.4ZM730.483 90.4V126.04H736.483V90.4H730.483ZM731.361 128.161L741.321 138.121L745.564 133.879L735.604 123.919L731.361 128.161ZM743.443 139H770.683V133H743.443V139ZM773.683 136V131.2H767.683V136H773.683ZM770.683 128.2H761.083V134.2H770.683V128.2ZM764.083 131.2V97.96H758.083V131.2H764.083ZM763.204 95.8387L753.244 85.8787L749.001 90.1213L758.961 100.081L763.204 95.8387ZM753.244 90.1213L763.204 80.1613L758.961 75.9187L749.001 85.8787L753.244 90.1213ZM764.083 78.04V51.16H758.083V78.04H764.083ZM763.204 49.0387L752.044 37.8787L747.801 42.1213L758.961 53.2813L763.204 49.0387ZM749.923 37H676.723V43H749.923V37ZM673.723 40V44.8H679.723V40H673.723ZM676.723 47.8H686.323V41.8H676.723V47.8ZM683.323 44.8V131.2H689.323V44.8H683.323ZM686.323 128.2H676.723V134.2H686.323V128.2ZM673.723 131.2V136H679.723V131.2H673.723ZM676.723 139H723.523V133H676.723V139ZM713.923 47.8H733.483V41.8H713.923V47.8ZM730.483 44.8V85.6H736.483V44.8H730.483ZM733.483 82.6H713.923V88.6H733.483V82.6ZM716.923 85.6V44.8H710.923V85.6H716.923ZM794.924 54.4L792.795 56.5144L794.91 58.6426L797.038 56.5283L794.924 54.4ZM776.684 36.04L774.569 33.9117L772.441 36.0261L774.555 38.1543L776.684 36.04ZM795.044 17.8L797.172 15.6856L795.058 13.5574L792.929 15.6717L795.044 17.8ZM813.284 36.16L815.398 38.2883L817.526 36.1739L815.412 34.0456L813.284 36.16ZM819.884 131.2H822.884V128.2H819.884V131.2ZM819.884 136V139H822.884V136H819.884ZM793.844 136L791.722 138.121L792.601 139H793.844V136ZM782.684 124.84H779.684V126.083L780.562 126.961L782.684 124.84ZM782.684 68.8H785.684V65.8H782.684V68.8ZM773.084 68.8H770.084V71.8H773.084V68.8ZM773.084 64V61H770.084V64H773.084ZM799.124 64L801.245 61.8787L800.366 61H799.124V64ZM810.284 75.16H813.284V73.9174L812.405 73.0387L810.284 75.16ZM810.284 131.2H807.284V134.2H810.284V131.2ZM797.052 52.2856L778.812 33.9256L774.555 38.1543L792.795 56.5144L797.052 52.2856ZM778.798 38.1683L797.158 19.9283L792.929 15.6717L774.569 33.9117L778.798 38.1683ZM792.915 19.9143L811.155 38.2744L815.412 34.0456L797.172 15.6856L792.915 19.9143ZM811.169 34.0317L792.809 52.2717L797.038 56.5283L815.398 38.2883L811.169 34.0317ZM816.884 131.2V136H822.884V131.2H816.884ZM819.884 133H793.844V139H819.884V133ZM795.965 133.879L784.805 122.719L780.562 126.961L791.722 138.121L795.965 133.879ZM785.684 124.84V68.8H779.684V124.84H785.684ZM782.684 65.8H773.084V71.8H782.684V65.8ZM776.084 68.8V64H770.084V68.8H776.084ZM773.084 67H799.124V61H773.084V67ZM797.002 66.1213L808.162 77.2813L812.405 73.0387L801.245 61.8787L797.002 66.1213ZM807.284 75.16V131.2H813.284V75.16H807.284ZM810.284 134.2H819.884V128.2H810.284V134.2ZM912.366 131.2H915.366V128.2H912.366V131.2ZM912.366 136V139H915.366V136H912.366ZM886.326 136L884.19 138.106L885.071 139H886.326V136ZM877.926 127.48L880.062 125.374L877.941 123.222L875.805 125.359L877.926 127.48ZM869.406 136V139H870.649L871.527 138.121L869.406 136ZM839.406 136L837.285 138.121L838.163 139H839.406V136ZM828.246 124.84H825.246V126.083L826.125 126.961L828.246 124.84ZM828.246 75.16L826.125 73.0387L825.246 73.9174V75.16H828.246ZM839.406 64V61H838.163L837.285 61.8787L839.406 64ZM868.686 64L870.807 61.8787L869.929 61H868.686V64ZM875.166 70.48L873.045 72.6013L878.166 77.7226V70.48H875.166ZM875.166 35.2H878.166V32.2H875.166V35.2ZM865.566 35.2H862.566V38.2H865.566V35.2ZM865.566 30.4V27.4H862.566V30.4H865.566ZM891.606 30.4L893.727 28.2787L892.849 27.4H891.606V30.4ZM902.766 41.56H905.766V40.3174L904.887 39.4387L902.766 41.56ZM902.766 131.2H899.766V134.2H902.766V131.2ZM875.166 122.8L877.287 124.921L878.166 124.043V122.8H875.166ZM875.166 77.92H878.166V76.6774L877.287 75.7987L875.166 77.92ZM866.046 68.8L868.167 66.6787L867.289 65.8H866.046V68.8ZM856.446 68.8V65.8H853.446V68.8H856.446ZM856.446 131.2H853.446V134.2H856.446V131.2ZM866.766 131.2V134.2H868.009L868.887 133.321L866.766 131.2ZM909.366 131.2V136H915.366V131.2H909.366ZM912.366 133H886.326V139H912.366V133ZM888.462 133.894L880.062 125.374L875.79 129.586L884.19 138.106L888.462 133.894ZM875.805 125.359L867.285 133.879L871.527 138.121L880.047 129.601L875.805 125.359ZM869.406 133H839.406V139H869.406V133ZM841.527 133.879L830.367 122.719L826.125 126.961L837.285 138.121L841.527 133.879ZM831.246 124.84V75.16H825.246V124.84H831.246ZM830.367 77.2813L841.527 66.1213L837.285 61.8787L826.125 73.0387L830.367 77.2813ZM839.406 67H868.686V61H839.406V67ZM866.565 66.1213L873.045 72.6013L877.287 68.3587L870.807 61.8787L866.565 66.1213ZM878.166 70.48V35.2H872.166V70.48H878.166ZM875.166 32.2H865.566V38.2H875.166V32.2ZM868.566 35.2V30.4H862.566V35.2H868.566ZM865.566 33.4H891.606V27.4H865.566V33.4ZM889.485 32.5213L900.645 43.6813L904.887 39.4387L893.727 28.2787L889.485 32.5213ZM899.766 41.56V131.2H905.766V41.56H899.766ZM902.766 134.2H912.366V128.2H902.766V134.2ZM878.166 122.8V77.92H872.166V122.8H878.166ZM877.287 75.7987L868.167 66.6787L863.925 70.9213L873.045 80.0413L877.287 75.7987ZM866.046 65.8H856.446V71.8H866.046V65.8ZM853.446 68.8V131.2H859.446V68.8H853.446ZM856.446 134.2H866.766V128.2H856.446V134.2ZM868.887 133.321L877.287 124.921L873.045 120.679L864.645 129.079L868.887 133.321ZM930.695 136L928.574 138.121L929.453 139H930.695V136ZM977.375 136V139H978.618L979.496 138.121L977.375 136ZM988.535 124.84L990.656 126.961L992.778 124.84L990.656 122.719L988.535 124.84ZM984.815 121.12L986.936 118.999L984.815 116.877L982.694 118.999L984.815 121.12ZM974.735 131.2V134.2H975.978L976.856 133.321L974.735 131.2ZM947.135 131.2H944.135V134.2H947.135V131.2ZM947.135 106V103H944.135V106H947.135ZM976.775 106V109H978.018L978.896 108.121L976.775 106ZM987.935 94.84L990.056 96.9613L990.935 96.0826V94.84H987.935ZM987.935 75.16H990.935V73.9174L990.056 73.0387L987.935 75.16ZM976.775 64L978.896 61.8787L978.018 61H976.775V64ZM930.695 64V61H929.453L928.574 61.8787L930.695 64ZM919.535 75.16L917.414 73.0387L916.535 73.9174V75.16H919.535ZM919.535 124.84H916.535V126.083L917.414 126.961L919.535 124.84ZM947.135 68.8V65.8H944.135V68.8H947.135ZM960.335 68.8H963.335V65.8H960.335V68.8ZM960.335 101.2V104.2H963.335V101.2H960.335ZM947.135 101.2H944.135V104.2H947.135V101.2ZM930.695 139H977.375V133H930.695V139ZM979.496 138.121L990.656 126.961L986.414 122.719L975.254 133.879L979.496 138.121ZM990.656 122.719L986.936 118.999L982.694 123.241L986.414 126.961L990.656 122.719ZM982.694 118.999L972.614 129.079L976.856 133.321L986.936 123.241L982.694 118.999ZM974.735 128.2H947.135V134.2H974.735V128.2ZM950.135 131.2V106H944.135V131.2H950.135ZM947.135 109H976.775V103H947.135V109ZM978.896 108.121L990.056 96.9613L985.814 92.7187L974.654 103.879L978.896 108.121ZM990.935 94.84V75.16H984.935V94.84H990.935ZM990.056 73.0387L978.896 61.8787L974.654 66.1213L985.814 77.2813L990.056 73.0387ZM976.775 61H930.695V67H976.775V61ZM928.574 61.8787L917.414 73.0387L921.656 77.2813L932.816 66.1213L928.574 61.8787ZM916.535 75.16V124.84H922.535V75.16H916.535ZM917.414 126.961L928.574 138.121L932.816 133.879L921.656 122.719L917.414 126.961ZM947.135 71.8H960.335V65.8H947.135V71.8ZM957.335 68.8V101.2H963.335V68.8H957.335ZM960.335 98.2H947.135V104.2H960.335V98.2ZM950.135 101.2V68.8H944.135V101.2H950.135Z" fill="white" fill-opacity="0.1"/>
</svg>
